# xmcd
#
# Track frame offsets:
#	150
#	16225
#	25101
#	35296
#	48644
#	58923
#	71675
#	85545
#	97117
#	108779
#	122360
#	137523
#	150692
#	165302
#	178940
#	191346
#	202819
#	213899
#	228766
#	241114
#	253052
#	264766
#	275904
#	285568
#	297540
#
# Disc length: 4108 seconds
#
# Revision: 1
# Processed by: cddbd v1.4PL0 Copyright (c) Steve Scherf et al.
# Submitted via: EasyCDDAExtractor 5.0.7
#
DISCID=54100a19
DTITLE=Various Artist - 50 Country Hits Volume 2 C D2
DYEAR=1900
DGENRE=Country
TTITLE0=Johnny Lee-Looking For Love
TTITLE1=Bob Luman-Lets Think About Livin
TTITLE2=Roger Miller-Engine Engine No 9
TTITLE3=Various Artist - Lacy D Dalton-Dream Baby
TTITLE4=Bobby Bare-Help Me Make It Through The Night
TTITLE5=Dickey Lee-Never Ending Song Of Love
TTITLE6=Johhny Carver-Tie A Yellow Ribbon Round The Old Oak Tree
TTITLE7=Freddy Fender-Before The Next Teardrop Falls
TTITLE8=Moe Bandy-Oklahoma Hills
TTITLE9=David Houston-Almost Persuaded
TTITLE10=Ben Colder-Almost persuaded No2
TTITLE11=Jim Ed Brown-You Can Have her
TTITLE12=Glen Campbell-Rhinestone Cowboy
TTITLE13=Lee Greenwood-Hearts Are'nt Made To Break
TTITLE14=George Jones-Take Me
TTITLE15=Ray Price-My Shoes Keep Walking Back To You
TTITLE16=Jimmy Dean-Little Black Book
TTITLE17=Roy Clark-Yestreday When I Was Young
TTITLE18=Skeeter Davis-What Does It Take
TTITLE19=Wynn Stewart-Wishful Thinking
TTITLE20=Henson Cargill-Skip A Rope
TTITLE21=Louvin Brothers- When I Stop Dreaming
TTITLE22=Claude Grey-I'll Have Another Cup Of Coffee Then I'll Leave
TTITLE23=Roy Drusky-Another
TTITLE24=Gearge Hamilton IV-A Rose And A Baby Ruth
EXTD=
EXTT0=
EXTT1=
EXTT2=
EXTT3=
EXTT4=
EXTT5=
EXTT6=
EXTT7=
EXTT8=
EXTT9=
EXTT10=
EXTT11=
EXTT12=
EXTT13=
EXTT14=
EXTT15=
EXTT16=
EXTT17=
EXTT18=
EXTT19=
EXTT20=
EXTT21=
EXTT22=
EXTT23=
EXTT24=
PLAYORDER=
